<svg id="图层_1" data-name="图层 1" xmlns="http://www.w3.org/2000/svg" viewBox="0 0 576.12 564.96"><defs><style>.cls-1{fill:#128fbe;}</style></defs><title>logo</title><path class="cls-1" d="M635.95,670.31H283.06c-18.32,0-30.58-14.85-27.34-33.17s20.72-33.2,39-33.2H647.65c18.33,0,30.58,14.86,27.34,33.2s-20.71,33.17-39,33.17" transform="translate(-224.27 -230)"/><path class="cls-1" d="M322.11,387.85c-3.24,18.33-20.7,33.18-39,33.18s-30.58-14.85-27.35-33.18,20.73-33.19,39.06-33.19,30.57,14.84,27.34,33.19" transform="translate(-224.27 -230)"/><path class="cls-1" d="M255.72,637.14C259,618.8,276.44,604,294.77,604s30.58,14.85,27.35,33.19-20.71,33.17-39.06,33.17-30.57-14.85-27.34-33.17" transform="translate(-224.27 -230)"/><path class="cls-1" d="M556.18,296.39h-99c-18.33,0-30.58-14.87-27.34-33.2s20.71-33.2,39-33.2h99.06c18.35,0,30.58,14.87,27.35,33.2s-20.7,33.2-39.06,33.2" transform="translate(-224.27 -230)"/><path class="cls-1" d="M729.88,421H377c-18.34,0-30.58-14.85-27.34-33.19s20.72-33.19,39-33.19H741.59c18.34,0,30.58,14.85,27.34,33.19S748.22,421,729.88,421" transform="translate(-224.27 -230)"/><path class="cls-1" d="M555.47,795H456.41c-18.34,0-30.41-14.86-27-33.19s21.09-33.2,39.42-33.2h99.07c18.32,0,30.42,14.86,27,33.2S573.8,795,555.47,795" transform="translate(-224.27 -230)"/><path class="cls-1" d="M760.82,545.67H615.62c-18.33,0-30.58-14.85-27.34-33.2s20.7-33.2,39-33.2H772.53c18.35,0,30.58,14.88,27.35,33.2s-20.72,33.2-39.06,33.2" transform="translate(-224.27 -230)"/><path class="cls-1" d="M397.33,545.67H252.13c-18.34,0-30.58-14.85-27.35-33.2s20.72-33.2,39-33.2H409c18.35,0,30.58,14.88,27.36,33.2s-20.72,33.2-39.07,33.2" transform="translate(-224.27 -230)"/><path class="cls-1" d="M595.24,263.19c-3.23,18.33-20.7,33.2-39.06,33.2s-30.57-14.87-27.33-33.2,20.73-33.18,39-33.18,30.58,14.85,27.35,33.18" transform="translate(-224.27 -230)"/><path class="cls-1" d="M768.93,387.84c-3.22,18.34-20.71,33.19-39,33.19s-30.59-14.85-27.34-33.19,20.71-33.18,39-33.18,30.58,14.84,27.34,33.18" transform="translate(-224.27 -230)"/><path class="cls-1" d="M545.53,512.49c-3.23,18.33-20.71,33.19-39,33.19s-30.58-14.86-27.34-33.19,20.73-33.21,39-33.21,30.58,14.87,27.35,33.21" transform="translate(-224.27 -230)"/><path class="cls-1" d="M429.42,761.78c3.23-18.34,20.71-33.19,39-33.19s30.59,14.85,27.35,33.19S475.09,795,456.76,795s-30.57-14.86-27.34-33.19" transform="translate(-224.27 -230)"/><path class="cls-1" d="M702.55,637.13c3.22-18.33,20.7-33.18,39-33.18s30.59,14.85,27.35,33.18-20.72,33.18-39.06,33.18-30.58-14.85-27.33-33.18" transform="translate(-224.27 -230)"/></svg>